<svg id="visual" viewBox="0 0 1500 680" width="1500" height="680" xmlns="http://www.w3.org/2000/svg" xmlns:xlink="http://www.w3.org/1999/xlink" version="1.1"><rect x="0" y="0" width="1500" height="680" fill="#CCCCCC"></rect><path d="M0 421L35.7 419.3C71.3 417.7 142.7 414.3 214.2 417.2C285.7 420 357.3 429 428.8 444C500.3 459 571.7 480 643 482.8C714.3 485.7 785.7 470.3 857 457.2C928.3 444 999.7 433 1071.2 426.2C1142.7 419.3 1214.3 416.7 1285.8 431C1357.3 445.3 1428.7 476.7 1464.3 492.3L1500 508L1500 681L1464.3 681C1428.7 681 1357.3 681 1285.8 681C1214.3 681 1142.7 681 1071.2 681C999.7 681 928.3 681 857 681C785.7 681 714.3 681 643 681C571.7 681 500.3 681 428.8 681C357.3 681 285.7 681 214.2 681C142.7 681 71.3 681 35.7 681L0 681Z" fill="#ffd15b"></path><path d="M0 542L35.7 530.2C71.3 518.3 142.7 494.7 214.2 483.2C285.7 471.7 357.3 472.3 428.8 468.7C500.3 465 571.7 457 643 459C714.3 461 785.7 473 857 480.5C928.3 488 999.7 491 1071.2 488.2C1142.7 485.3 1214.3 476.7 1285.8 474.2C1357.3 471.7 1428.7 475.3 1464.3 477.2L1500 479L1500 681L1464.3 681C1428.7 681 1357.3 681 1285.8 681C1214.3 681 1142.7 681 1071.2 681C999.7 681 928.3 681 857 681C785.7 681 714.3 681 643 681C571.7 681 500.3 681 428.8 681C357.3 681 285.7 681 214.2 681C142.7 681 71.3 681 35.7 681L0 681Z" fill="#fdbc45"></path><path d="M0 538L35.7 535.8C71.3 533.7 142.7 529.3 214.2 535.2C285.7 541 357.3 557 428.8 560.8C500.3 564.7 571.7 556.3 643 545.3C714.3 534.3 785.7 520.7 857 522.8C928.3 525 999.7 543 1071.2 549C1142.7 555 1214.3 549 1285.8 539.7C1357.3 530.3 1428.7 517.7 1464.3 511.3L1500 505L1500 681L1464.3 681C1428.7 681 1357.3 681 1285.8 681C1214.3 681 1142.7 681 1071.2 681C999.7 681 928.3 681 857 681C785.7 681 714.3 681 643 681C571.7 681 500.3 681 428.8 681C357.3 681 285.7 681 214.2 681C142.7 681 71.3 681 35.7 681L0 681Z" fill="#fba730"></path><path d="M0 576L35.7 577C71.3 578 142.7 580 214.2 584.7C285.7 589.3 357.3 596.7 428.8 597.5C500.3 598.3 571.7 592.7 643 588.8C714.3 585 785.7 583 857 576.7C928.3 570.3 999.7 559.7 1071.2 553.8C1142.7 548 1214.3 547 1285.8 548.5C1357.3 550 1428.7 554 1464.3 556L1500 558L1500 681L1464.3 681C1428.7 681 1357.3 681 1285.8 681C1214.3 681 1142.7 681 1071.2 681C999.7 681 928.3 681 857 681C785.7 681 714.3 681 643 681C571.7 681 500.3 681 428.8 681C357.3 681 285.7 681 214.2 681C142.7 681 71.3 681 35.7 681L0 681Z" fill="#f9901e"></path><path d="M0 635L35.7 633.8C71.3 632.7 142.7 630.3 214.2 624.5C285.7 618.7 357.3 609.3 428.8 605.2C500.3 601 571.7 602 643 607.3C714.3 612.7 785.7 622.3 857 627.2C928.3 632 999.7 632 1071.2 632.5C1142.7 633 1214.3 634 1285.8 630.7C1357.3 627.3 1428.7 619.7 1464.3 615.8L1500 612L1500 681L1464.3 681C1428.7 681 1357.3 681 1285.8 681C1214.3 681 1142.7 681 1071.2 681C999.7 681 928.3 681 857 681C785.7 681 714.3 681 643 681C571.7 681 500.3 681 428.8 681C357.3 681 285.7 681 214.2 681C142.7 681 71.3 681 35.7 681L0 681Z" fill="#f7770f"></path></svg>